<?xml version="1.0" encoding="UTF-8" standalone="no"?>
<!DOCTYPE svg PUBLIC "-//W3C//DTD SVG 1.1//EN"
 "http://www.w3.org/Graphics/SVG/1.1/DTD/svg11.dtd">
<!-- Generated by graphviz version 2.44.1 (20200629.0846)
 -->
<!-- Title: snakemake_dag Pages: 1 -->
<svg width="966pt" height="276pt"
 viewBox="0.00 0.00 966.18 276.00" xmlns="http://www.w3.org/2000/svg" xmlns:xlink="http://www.w3.org/1999/xlink">
<g id="graph0" class="graph" transform="scale(1 1) rotate(0) translate(4 272)">
<title>snakemake_dag</title>
<polygon fill="white" stroke="transparent" points="-4,4 -4,-272 962.18,-272 962.18,4 -4,4"/>
<!-- 0 -->
<g id="node1" class="node">
<title>0</title>
<path fill="none" stroke="#56d8d8" stroke-width="2" d="M461.18,-36C461.18,-36 431.18,-36 431.18,-36 425.18,-36 419.18,-30 419.18,-24 419.18,-24 419.18,-12 419.18,-12 419.18,-6 425.18,0 431.18,0 431.18,0 461.18,0 461.18,0 467.18,0 473.18,-6 473.18,-12 473.18,-12 473.18,-24 473.18,-24 473.18,-30 467.18,-36 461.18,-36"/>
<text text-anchor="middle" x="446.18" y="-15.5" font-family="sans" font-size="10.00">all</text>
</g>
<!-- 1 -->
<g id="node2" class="node">
<title>1</title>
<path fill="none" stroke="#569ad8" stroke-width="2" d="M102.68,-108C102.68,-108 43.68,-108 43.68,-108 37.68,-108 31.68,-102 31.68,-96 31.68,-96 31.68,-84 31.68,-84 31.68,-78 37.68,-72 43.68,-72 43.68,-72 102.68,-72 102.68,-72 108.68,-72 114.68,-78 114.68,-84 114.68,-84 114.68,-96 114.68,-96 114.68,-102 108.68,-108 102.68,-108"/>
<text text-anchor="middle" x="73.18" y="-87.5" font-family="sans" font-size="10.00">get_predictions</text>
</g>
<!-- 1&#45;&gt;0 -->
<g id="edge1" class="edge">
<title>1&#45;&gt;0</title>
<path fill="none" stroke="grey" stroke-width="2" d="M114.88,-81.17C188.12,-67.43 338.7,-39.17 408.77,-26.02"/>
<polygon fill="grey" stroke="grey" stroke-width="2" points="409.73,-29.4 418.91,-24.12 408.44,-22.52 409.73,-29.4"/>
</g>
<!-- 2 -->
<g id="node3" class="node">
<title>2</title>
<path fill="none" stroke="#569ad8" stroke-width="2" d="M526.68,-108C526.68,-108 467.68,-108 467.68,-108 461.68,-108 455.68,-102 455.68,-96 455.68,-96 455.68,-84 455.68,-84 455.68,-78 461.68,-72 467.68,-72 467.68,-72 526.68,-72 526.68,-72 532.68,-72 538.68,-78 538.68,-84 538.68,-84 538.68,-96 538.68,-96 538.68,-102 532.68,-108 526.68,-108"/>
<text text-anchor="middle" x="497.18" y="-87.5" font-family="sans" font-size="10.00">get_predictions</text>
</g>
<!-- 2&#45;&gt;0 -->
<g id="edge2" class="edge">
<title>2&#45;&gt;0</title>
<path fill="none" stroke="grey" stroke-width="2" d="M484.58,-71.7C478.58,-63.47 471.31,-53.48 464.7,-44.42"/>
<polygon fill="grey" stroke="grey" stroke-width="2" points="467.36,-42.13 458.64,-36.1 461.7,-46.25 467.36,-42.13"/>
</g>
<!-- 3 -->
<g id="node4" class="node">
<title>3</title>
<path fill="none" stroke="#569ad8" stroke-width="2" d="M268.68,-108C268.68,-108 209.68,-108 209.68,-108 203.68,-108 197.68,-102 197.68,-96 197.68,-96 197.68,-84 197.68,-84 197.68,-78 203.68,-72 209.68,-72 209.68,-72 268.68,-72 268.68,-72 274.68,-72 280.68,-78 280.68,-84 280.68,-84 280.68,-96 280.68,-96 280.68,-102 274.68,-108 268.68,-108"/>
<text text-anchor="middle" x="239.18" y="-87.5" font-family="sans" font-size="10.00">get_predictions</text>
</g>
<!-- 3&#45;&gt;0 -->
<g id="edge3" class="edge">
<title>3&#45;&gt;0</title>
<path fill="none" stroke="grey" stroke-width="2" d="M281.07,-74.83C318.76,-62.09 373.58,-43.55 409.55,-31.39"/>
<polygon fill="grey" stroke="grey" stroke-width="2" points="410.82,-34.65 419.17,-28.13 408.58,-28.02 410.82,-34.65"/>
</g>
<!-- 4 -->
<g id="node5" class="node">
<title>4</title>
<path fill="none" stroke="#569ad8" stroke-width="2" d="M425.68,-108C425.68,-108 366.68,-108 366.68,-108 360.68,-108 354.68,-102 354.68,-96 354.68,-96 354.68,-84 354.68,-84 354.68,-78 360.68,-72 366.68,-72 366.68,-72 425.68,-72 425.68,-72 431.68,-72 437.68,-78 437.68,-84 437.68,-84 437.68,-96 437.68,-96 437.68,-102 431.68,-108 425.68,-108"/>
<text text-anchor="middle" x="396.18" y="-87.5" font-family="sans" font-size="10.00">get_predictions</text>
</g>
<!-- 4&#45;&gt;0 -->
<g id="edge4" class="edge">
<title>4&#45;&gt;0</title>
<path fill="none" stroke="grey" stroke-width="2" d="M408.54,-71.7C414.41,-63.47 421.55,-53.48 428.02,-44.42"/>
<polygon fill="grey" stroke="grey" stroke-width="2" points="431,-46.28 433.96,-36.1 425.3,-42.21 431,-46.28"/>
</g>
<!-- 5 -->
<g id="node6" class="node">
<title>5</title>
<path fill="none" stroke="#569ad8" stroke-width="2" d="M683.68,-108C683.68,-108 624.68,-108 624.68,-108 618.68,-108 612.68,-102 612.68,-96 612.68,-96 612.68,-84 612.68,-84 612.68,-78 618.68,-72 624.68,-72 624.68,-72 683.68,-72 683.68,-72 689.68,-72 695.68,-78 695.68,-84 695.68,-84 695.68,-96 695.68,-96 695.68,-102 689.68,-108 683.68,-108"/>
<text text-anchor="middle" x="654.18" y="-87.5" font-family="sans" font-size="10.00">get_predictions</text>
</g>
<!-- 5&#45;&gt;0 -->
<g id="edge5" class="edge">
<title>5&#45;&gt;0</title>
<path fill="none" stroke="grey" stroke-width="2" d="M612.59,-75C574.77,-62.27 519.48,-43.67 483.17,-31.45"/>
<polygon fill="grey" stroke="grey" stroke-width="2" points="484.05,-28.05 473.46,-28.18 481.82,-34.69 484.05,-28.05"/>
</g>
<!-- 6 -->
<g id="node7" class="node">
<title>6</title>
<path fill="none" stroke="#569ad8" stroke-width="2" d="M849.68,-108C849.68,-108 790.68,-108 790.68,-108 784.68,-108 778.68,-102 778.68,-96 778.68,-96 778.68,-84 778.68,-84 778.68,-78 784.68,-72 790.68,-72 790.68,-72 849.68,-72 849.68,-72 855.68,-72 861.68,-78 861.68,-84 861.68,-84 861.68,-96 861.68,-96 861.68,-102 855.68,-108 849.68,-108"/>
<text text-anchor="middle" x="820.18" y="-87.5" font-family="sans" font-size="10.00">get_predictions</text>
</g>
<!-- 6&#45;&gt;0 -->
<g id="edge6" class="edge">
<title>6&#45;&gt;0</title>
<path fill="none" stroke="grey" stroke-width="2" d="M778.37,-81.17C704.94,-67.43 553.96,-39.17 483.69,-26.02"/>
<polygon fill="grey" stroke="grey" stroke-width="2" points="484,-22.52 473.53,-24.12 482.71,-29.4 484,-22.52"/>
</g>
<!-- 7 -->
<g id="node8" class="node">
<title>7</title>
<path fill="none" stroke="#59d856" stroke-width="2" d="M116.18,-196C116.18,-196 30.18,-196 30.18,-196 24.18,-196 18.18,-190 18.18,-184 18.18,-184 18.18,-156 18.18,-156 18.18,-150 24.18,-144 30.18,-144 30.18,-144 116.18,-144 116.18,-144 122.18,-144 128.18,-150 128.18,-156 128.18,-156 128.18,-184 128.18,-184 128.18,-190 122.18,-196 116.18,-196"/>
<text text-anchor="middle" x="73.18" y="-184" font-family="sans" font-size="10.00">train_whole_model</text>
<text text-anchor="middle" x="73.18" y="-173" font-family="sans" font-size="10.00">model: RF</text>
<text text-anchor="middle" x="73.18" y="-162" font-family="sans" font-size="10.00">repeat: 0</text>
<text text-anchor="middle" x="73.18" y="-151" font-family="sans" font-size="10.00">target: encoded_label</text>
</g>
<!-- 7&#45;&gt;1 -->
<g id="edge7" class="edge">
<title>7&#45;&gt;1</title>
<path fill="none" stroke="grey" stroke-width="2" d="M73.18,-143.89C73.18,-135.84 73.18,-126.88 73.18,-118.66"/>
<polygon fill="grey" stroke="grey" stroke-width="2" points="76.68,-118.41 73.18,-108.41 69.68,-118.41 76.68,-118.41"/>
</g>
<!-- 8 -->
<g id="node9" class="node">
<title>8</title>
<path fill="none" stroke="#97d856" stroke-width="2" d="M221.18,-268C221.18,-268 175.18,-268 175.18,-268 169.18,-268 163.18,-262 163.18,-256 163.18,-256 163.18,-244 163.18,-244 163.18,-238 169.18,-232 175.18,-232 175.18,-232 221.18,-232 221.18,-232 227.18,-232 233.18,-238 233.18,-244 233.18,-244 233.18,-256 233.18,-256 233.18,-262 227.18,-268 221.18,-268"/>
<text text-anchor="middle" x="198.18" y="-253" font-family="sans" font-size="10.00">subset_data</text>
<text text-anchor="middle" x="198.18" y="-242" font-family="sans" font-size="10.00">subtype: B</text>
</g>
<!-- 8&#45;&gt;1 -->
<g id="edge8" class="edge">
<title>8&#45;&gt;1</title>
<path fill="none" stroke="grey" stroke-width="2" d="M163,-244.22C113.62,-236.71 27.71,-220.44 9.18,-196 -4.78,-177.58 -0.65,-164.91 9.18,-144 14.7,-132.26 24.25,-122.22 34.3,-114.15"/>
<polygon fill="grey" stroke="grey" stroke-width="2" points="36.49,-116.88 42.41,-108.09 32.31,-111.27 36.49,-116.88"/>
</g>
<!-- 8&#45;&gt;3 -->
<g id="edge12" class="edge">
<title>8&#45;&gt;3</title>
<path fill="none" stroke="grey" stroke-width="2" d="M187.97,-231.89C176.6,-210.46 161.52,-173.05 175.18,-144 180.7,-132.26 190.25,-122.22 200.3,-114.15"/>
<polygon fill="grey" stroke="grey" stroke-width="2" points="202.49,-116.88 208.41,-108.09 198.31,-111.27 202.49,-116.88"/>
</g>
<!-- 8&#45;&gt;4 -->
<g id="edge14" class="edge">
<title>8&#45;&gt;4</title>
<path fill="none" stroke="grey" stroke-width="2" d="M233.27,-236.22C254.94,-227.19 282.47,-213.57 303.18,-196 325.01,-177.48 322.36,-165.57 341.18,-144 349.83,-134.09 360.04,-123.9 369.3,-115.13"/>
<polygon fill="grey" stroke="grey" stroke-width="2" points="371.87,-117.52 376.79,-108.14 367.09,-112.4 371.87,-117.52"/>
</g>
<!-- 8&#45;&gt;7 -->
<g id="edge19" class="edge">
<title>8&#45;&gt;7</title>
<path fill="none" stroke="grey" stroke-width="2" d="M170.75,-231.88C156.43,-222.95 138.48,-211.74 121.89,-201.39"/>
<polygon fill="grey" stroke="grey" stroke-width="2" points="123.7,-198.4 113.37,-196.07 120,-204.34 123.7,-198.4"/>
</g>
<!-- 11 -->
<g id="node12" class="node">
<title>11</title>
<path fill="none" stroke="#59d856" stroke-width="2" d="M282.18,-196C282.18,-196 196.18,-196 196.18,-196 190.18,-196 184.18,-190 184.18,-184 184.18,-184 184.18,-156 184.18,-156 184.18,-150 190.18,-144 196.18,-144 196.18,-144 282.18,-144 282.18,-144 288.18,-144 294.18,-150 294.18,-156 294.18,-156 294.18,-184 294.18,-184 294.18,-190 288.18,-196 282.18,-196"/>
<text text-anchor="middle" x="239.18" y="-184" font-family="sans" font-size="10.00">train_whole_model</text>
<text text-anchor="middle" x="239.18" y="-173" font-family="sans" font-size="10.00">model: Bayes</text>
<text text-anchor="middle" x="239.18" y="-162" font-family="sans" font-size="10.00">repeat: 0</text>
<text text-anchor="middle" x="239.18" y="-151" font-family="sans" font-size="10.00">target: encoded_label</text>
</g>
<!-- 8&#45;&gt;11 -->
<g id="edge21" class="edge">
<title>8&#45;&gt;11</title>
<path fill="none" stroke="grey" stroke-width="2" d="M207.28,-231.69C211.39,-223.88 216.39,-214.37 221.2,-205.22"/>
<polygon fill="grey" stroke="grey" stroke-width="2" points="224.35,-206.74 225.91,-196.26 218.15,-203.48 224.35,-206.74"/>
</g>
<!-- 12 -->
<g id="node13" class="node">
<title>12</title>
<path fill="none" stroke="#59d856" stroke-width="2" d="M448.18,-196C448.18,-196 362.18,-196 362.18,-196 356.18,-196 350.18,-190 350.18,-184 350.18,-184 350.18,-156 350.18,-156 350.18,-150 356.18,-144 362.18,-144 362.18,-144 448.18,-144 448.18,-144 454.18,-144 460.18,-150 460.18,-156 460.18,-156 460.18,-184 460.18,-184 460.18,-190 454.18,-196 448.18,-196"/>
<text text-anchor="middle" x="405.18" y="-184" font-family="sans" font-size="10.00">train_whole_model</text>
<text text-anchor="middle" x="405.18" y="-173" font-family="sans" font-size="10.00">model: Logistic</text>
<text text-anchor="middle" x="405.18" y="-162" font-family="sans" font-size="10.00">repeat: 0</text>
<text text-anchor="middle" x="405.18" y="-151" font-family="sans" font-size="10.00">target: encoded_label</text>
</g>
<!-- 8&#45;&gt;12 -->
<g id="edge22" class="edge">
<title>8&#45;&gt;12</title>
<path fill="none" stroke="grey" stroke-width="2" d="M233.3,-235.77C262.5,-224.76 304.86,-208.8 340.21,-195.48"/>
<polygon fill="grey" stroke="grey" stroke-width="2" points="341.86,-198.6 349.98,-191.8 339.39,-192.05 341.86,-198.6"/>
</g>
<!-- 9 -->
<g id="node10" class="node">
<title>9</title>
<path fill="none" stroke="#59d856" stroke-width="2" d="M614.18,-196C614.18,-196 528.18,-196 528.18,-196 522.18,-196 516.18,-190 516.18,-184 516.18,-184 516.18,-156 516.18,-156 516.18,-150 522.18,-144 528.18,-144 528.18,-144 614.18,-144 614.18,-144 620.18,-144 626.18,-150 626.18,-156 626.18,-156 626.18,-184 626.18,-184 626.18,-190 620.18,-196 614.18,-196"/>
<text text-anchor="middle" x="571.18" y="-184" font-family="sans" font-size="10.00">train_whole_model</text>
<text text-anchor="middle" x="571.18" y="-173" font-family="sans" font-size="10.00">model: RF</text>
<text text-anchor="middle" x="571.18" y="-162" font-family="sans" font-size="10.00">repeat: 0</text>
<text text-anchor="middle" x="571.18" y="-151" font-family="sans" font-size="10.00">target: encoded_label</text>
</g>
<!-- 9&#45;&gt;2 -->
<g id="edge9" class="edge">
<title>9&#45;&gt;2</title>
<path fill="none" stroke="grey" stroke-width="2" d="M547.36,-143.89C538.86,-134.94 529.3,-124.86 520.82,-115.92"/>
<polygon fill="grey" stroke="grey" stroke-width="2" points="523.12,-113.26 513.7,-108.41 518.04,-118.07 523.12,-113.26"/>
</g>
<!-- 10 -->
<g id="node11" class="node">
<title>10</title>
<path fill="none" stroke="#97d856" stroke-width="2" d="M718.18,-268C718.18,-268 672.18,-268 672.18,-268 666.18,-268 660.18,-262 660.18,-256 660.18,-256 660.18,-244 660.18,-244 660.18,-238 666.18,-232 672.18,-232 672.18,-232 718.18,-232 718.18,-232 724.18,-232 730.18,-238 730.18,-244 730.18,-244 730.18,-256 730.18,-256 730.18,-262 724.18,-268 718.18,-268"/>
<text text-anchor="middle" x="695.18" y="-253" font-family="sans" font-size="10.00">subset_data</text>
<text text-anchor="middle" x="695.18" y="-242" font-family="sans" font-size="10.00">subtype: C</text>
</g>
<!-- 10&#45;&gt;2 -->
<g id="edge10" class="edge">
<title>10&#45;&gt;2</title>
<path fill="none" stroke="grey" stroke-width="2" d="M660.08,-243.89C611.27,-236.02 526.68,-219.37 507.18,-196 489.27,-174.54 489.16,-141.35 492,-118.04"/>
<polygon fill="grey" stroke="grey" stroke-width="2" points="495.47,-118.51 493.45,-108.1 488.54,-117.49 495.47,-118.51"/>
</g>
<!-- 10&#45;&gt;5 -->
<g id="edge16" class="edge">
<title>10&#45;&gt;5</title>
<path fill="none" stroke="grey" stroke-width="2" d="M686.88,-231.67C682.28,-221.48 676.78,-208.23 673.18,-196 665.58,-170.15 660.48,-139.79 657.5,-118.38"/>
<polygon fill="grey" stroke="grey" stroke-width="2" points="660.95,-117.81 656.16,-108.36 654.01,-118.73 660.95,-117.81"/>
</g>
<!-- 10&#45;&gt;6 -->
<g id="edge18" class="edge">
<title>10&#45;&gt;6</title>
<path fill="none" stroke="grey" stroke-width="2" d="M730.37,-240.33C754.04,-232.64 783.97,-218.97 801.18,-196 817.96,-173.6 821.56,-141.07 821.68,-118.17"/>
<polygon fill="grey" stroke="grey" stroke-width="2" points="825.18,-118.03 821.52,-108.09 818.18,-118.15 825.18,-118.03"/>
</g>
<!-- 10&#45;&gt;9 -->
<g id="edge20" class="edge">
<title>10&#45;&gt;9</title>
<path fill="none" stroke="grey" stroke-width="2" d="M667.97,-231.88C653.89,-223.03 636.28,-211.95 619.95,-201.68"/>
<polygon fill="grey" stroke="grey" stroke-width="2" points="621.37,-198.44 611.04,-196.07 617.65,-204.36 621.37,-198.44"/>
</g>
<!-- 13 -->
<g id="node14" class="node">
<title>13</title>
<path fill="none" stroke="#59d856" stroke-width="2" d="M780.18,-196C780.18,-196 694.18,-196 694.18,-196 688.18,-196 682.18,-190 682.18,-184 682.18,-184 682.18,-156 682.18,-156 682.18,-150 688.18,-144 694.18,-144 694.18,-144 780.18,-144 780.18,-144 786.18,-144 792.18,-150 792.18,-156 792.18,-156 792.18,-184 792.18,-184 792.18,-190 786.18,-196 780.18,-196"/>
<text text-anchor="middle" x="737.18" y="-184" font-family="sans" font-size="10.00">train_whole_model</text>
<text text-anchor="middle" x="737.18" y="-173" font-family="sans" font-size="10.00">model: Bayes</text>
<text text-anchor="middle" x="737.18" y="-162" font-family="sans" font-size="10.00">repeat: 0</text>
<text text-anchor="middle" x="737.18" y="-151" font-family="sans" font-size="10.00">target: encoded_label</text>
</g>
<!-- 10&#45;&gt;13 -->
<g id="edge23" class="edge">
<title>10&#45;&gt;13</title>
<path fill="none" stroke="grey" stroke-width="2" d="M704.5,-231.69C708.71,-223.88 713.83,-214.37 718.76,-205.22"/>
<polygon fill="grey" stroke="grey" stroke-width="2" points="721.92,-206.72 723.58,-196.26 715.76,-203.4 721.92,-206.72"/>
</g>
<!-- 14 -->
<g id="node15" class="node">
<title>14</title>
<path fill="none" stroke="#59d856" stroke-width="2" d="M946.18,-196C946.18,-196 860.18,-196 860.18,-196 854.18,-196 848.18,-190 848.18,-184 848.18,-184 848.18,-156 848.18,-156 848.18,-150 854.18,-144 860.18,-144 860.18,-144 946.18,-144 946.18,-144 952.18,-144 958.18,-150 958.18,-156 958.18,-156 958.18,-184 958.18,-184 958.18,-190 952.18,-196 946.18,-196"/>
<text text-anchor="middle" x="903.18" y="-184" font-family="sans" font-size="10.00">train_whole_model</text>
<text text-anchor="middle" x="903.18" y="-173" font-family="sans" font-size="10.00">model: Logistic</text>
<text text-anchor="middle" x="903.18" y="-162" font-family="sans" font-size="10.00">repeat: 0</text>
<text text-anchor="middle" x="903.18" y="-151" font-family="sans" font-size="10.00">target: encoded_label</text>
</g>
<!-- 10&#45;&gt;14 -->
<g id="edge24" class="edge">
<title>10&#45;&gt;14</title>
<path fill="none" stroke="grey" stroke-width="2" d="M730.47,-235.77C760.04,-224.68 803.05,-208.55 838.74,-195.17"/>
<polygon fill="grey" stroke="grey" stroke-width="2" points="839.99,-198.44 848.12,-191.65 837.53,-191.88 839.99,-198.44"/>
</g>
<!-- 11&#45;&gt;3 -->
<g id="edge11" class="edge">
<title>11&#45;&gt;3</title>
<path fill="none" stroke="grey" stroke-width="2" d="M239.18,-143.89C239.18,-135.84 239.18,-126.88 239.18,-118.66"/>
<polygon fill="grey" stroke="grey" stroke-width="2" points="242.68,-118.41 239.18,-108.41 235.68,-118.41 242.68,-118.41"/>
</g>
<!-- 12&#45;&gt;4 -->
<g id="edge13" class="edge">
<title>12&#45;&gt;4</title>
<path fill="none" stroke="grey" stroke-width="2" d="M402.28,-143.89C401.35,-135.75 400.3,-126.68 399.34,-118.38"/>
<polygon fill="grey" stroke="grey" stroke-width="2" points="402.81,-117.94 398.19,-108.41 395.86,-118.75 402.81,-117.94"/>
</g>
<!-- 13&#45;&gt;5 -->
<g id="edge15" class="edge">
<title>13&#45;&gt;5</title>
<path fill="none" stroke="grey" stroke-width="2" d="M710.46,-143.89C700.67,-134.68 689.61,-124.29 679.9,-115.17"/>
<polygon fill="grey" stroke="grey" stroke-width="2" points="682.14,-112.47 672.45,-108.17 677.34,-117.57 682.14,-112.47"/>
</g>
<!-- 14&#45;&gt;6 -->
<g id="edge17" class="edge">
<title>14&#45;&gt;6</title>
<path fill="none" stroke="grey" stroke-width="2" d="M876.46,-143.89C866.67,-134.68 855.61,-124.29 845.9,-115.17"/>
<polygon fill="grey" stroke="grey" stroke-width="2" points="848.14,-112.47 838.45,-108.17 843.34,-117.57 848.14,-112.47"/>
</g>
</g>
</svg>
