<?xml version="1.0" encoding="UTF-8" standalone="no"?><!DOCTYPE svg PUBLIC "-//W3C//DTD SVG 1.1//EN" "http://www.w3.org/Graphics/SVG/1.1/DTD/svg11.dtd"><!-- Generated by graphviz version 2.40.1 (20161225.0304)
 --><!-- Title: snakemake_dag Pages: 1 --><svg xmlns="http://www.w3.org/2000/svg" xmlns:xlink="http://www.w3.org/1999/xlink" width="166pt" height="188pt" viewBox="0.00 0.00 166.00 188.00">
<g id="graph0" class="graph" transform="scale(1 1) rotate(0) translate(4 184)">
<title>snakemake_dag</title>
<polygon fill="#ffffff" stroke="transparent" points="-4,4 -4,-184 162.001,-184 162.001,4 -4,4"/>
<!-- 0 -->
<g id="node1" class="node">
<title>0</title>
<path fill="none" stroke="#d85656" stroke-width="2" d="M95.18,-36C95.18,-36 65.18,-36 65.18,-36 59.18,-36 53.18,-30 53.18,-24 53.18,-24 53.18,-12 53.18,-12 53.18,-6 59.18,0 65.18,0 65.18,0 95.18,0 95.18,0 101.18,0 107.18,-6 107.18,-12 107.18,-12 107.18,-24 107.18,-24 107.18,-30 101.18,-36 95.18,-36"/>
<text text-anchor="middle" x="80.18" y="-15" font-family="sans" font-size="10.00" fill="#000000">all</text>
</g>
<!-- 1 -->
<g id="node2" class="node">
<title>1</title>
<path fill="none" stroke="#56d8a9" stroke-width="2" d="M111.2133,-108C111.2133,-108 49.1467,-108 49.1467,-108 43.1467,-108 37.1467,-102 37.1467,-96 37.1467,-96 37.1467,-84 37.1467,-84 37.1467,-78 43.1467,-72 49.1467,-72 49.1467,-72 111.2133,-72 111.2133,-72 117.2133,-72 123.2133,-78 123.2133,-84 123.2133,-84 123.2133,-96 123.2133,-96 123.2133,-102 117.2133,-108 111.2133,-108"/>
<text text-anchor="middle" x="80.18" y="-87" font-family="sans" font-size="10.00" fill="#000000">homogenize_data</text>
</g>
<!-- 1&#45;&gt;0 -->
<g id="edge1" class="edge">
<title>1-&gt;0</title>
<path fill="none" stroke="#c0c0c0" stroke-width="2" d="M80.18,-71.8314C80.18,-64.131 80.18,-54.9743 80.18,-46.4166"/>
<polygon fill="#c0c0c0" stroke="#c0c0c0" stroke-width="2" points="83.6801,-46.4132 80.18,-36.4133 76.6801,-46.4133 83.6801,-46.4132"/>
</g>
<!-- 2 -->
<g id="node3" class="node">
<title>2</title>
<path fill="none" stroke="#afd856" stroke-width="2" d="M60.5409,-180C60.5409,-180 11.8191,-180 11.8191,-180 5.8191,-180 -.1809,-174 -.1809,-168 -.1809,-168 -.1809,-156 -.1809,-156 -.1809,-150 5.8191,-144 11.8191,-144 11.8191,-144 60.5409,-144 60.5409,-144 66.5409,-144 72.5409,-150 72.5409,-156 72.5409,-156 72.5409,-168 72.5409,-168 72.5409,-174 66.5409,-180 60.5409,-180"/>
<text text-anchor="middle" x="36.18" y="-165" font-family="sans" font-size="10.00" fill="#000000">process_data</text>
<text text-anchor="middle" x="36.18" y="-153" font-family="sans" font-size="10.00" fill="#000000">region: Africa</text>
</g>
<!-- 2&#45;&gt;1 -->
<g id="edge2" class="edge">
<title>2-&gt;1</title>
<path fill="none" stroke="#c0c0c0" stroke-width="2" d="M47.2831,-143.8314C52.2474,-135.7079 58.2022,-125.9637 63.6728,-117.0118"/>
<polygon fill="#c0c0c0" stroke="#c0c0c0" stroke-width="2" points="66.6994,-118.7712 68.9274,-108.4133 60.7264,-115.121 66.6994,-118.7712"/>
</g>
<!-- 3 -->
<g id="node4" class="node">
<title>3</title>
<path fill="none" stroke="#afd856" stroke-width="2" d="M145.8229,-180C145.8229,-180 102.5371,-180 102.5371,-180 96.5371,-180 90.5371,-174 90.5371,-168 90.5371,-168 90.5371,-156 90.5371,-156 90.5371,-150 96.5371,-144 102.5371,-144 102.5371,-144 145.8229,-144 145.8229,-144 151.8229,-144 157.8229,-150 157.8229,-156 157.8229,-156 157.8229,-168 157.8229,-168 157.8229,-174 151.8229,-180 145.8229,-180"/>
<text text-anchor="middle" x="124.18" y="-165" font-family="sans" font-size="10.00" fill="#000000">process_data</text>
<text text-anchor="middle" x="124.18" y="-153" font-family="sans" font-size="10.00" fill="#000000">region: UK</text>
</g>
<!-- 3&#45;&gt;1 -->
<g id="edge3" class="edge">
<title>3-&gt;1</title>
<path fill="none" stroke="#c0c0c0" stroke-width="2" d="M113.0769,-143.8314C108.1126,-135.7079 102.1578,-125.9637 96.6872,-117.0118"/>
<polygon fill="#c0c0c0" stroke="#c0c0c0" stroke-width="2" points="99.6336,-115.121 91.4326,-108.4133 93.6606,-118.7712 99.6336,-115.121"/>
</g>
</g>
</svg>