<?xml version="1.0" encoding="UTF-8" standalone="no"?>
<!DOCTYPE svg PUBLIC "-//W3C//DTD SVG 1.1//EN"
 "http://www.w3.org/Graphics/SVG/1.1/DTD/svg11.dtd">
<!-- Generated by graphviz version 2.44.1 (20200629.0846)
 -->
<!-- Title: snakemake_dag Pages: 1 -->
<svg width="1464pt" height="276pt"
 viewBox="0.00 0.00 1464.18 276.00" xmlns="http://www.w3.org/2000/svg" xmlns:xlink="http://www.w3.org/1999/xlink">
<g id="graph0" class="graph" transform="scale(1 1) rotate(0) translate(4 272)">
<title>snakemake_dag</title>
<polygon fill="white" stroke="transparent" points="-4,4 -4,-272 1460.18,-272 1460.18,4 -4,4"/>
<!-- 0 -->
<g id="node1" class="node">
<title>0</title>
<path fill="none" stroke="#56d8d8" stroke-width="2" d="M710.18,-36C710.18,-36 680.18,-36 680.18,-36 674.18,-36 668.18,-30 668.18,-24 668.18,-24 668.18,-12 668.18,-12 668.18,-6 674.18,0 680.18,0 680.18,0 710.18,0 710.18,0 716.18,0 722.18,-6 722.18,-12 722.18,-12 722.18,-24 722.18,-24 722.18,-30 716.18,-36 710.18,-36"/>
<text text-anchor="middle" x="695.18" y="-15.5" font-family="sans" font-size="10.00">all</text>
</g>
<!-- 1 -->
<g id="node2" class="node">
<title>1</title>
<path fill="none" stroke="#59d856" stroke-width="2" d="M102.68,-108C102.68,-108 43.68,-108 43.68,-108 37.68,-108 31.68,-102 31.68,-96 31.68,-96 31.68,-84 31.68,-84 31.68,-78 37.68,-72 43.68,-72 43.68,-72 102.68,-72 102.68,-72 108.68,-72 114.68,-78 114.68,-84 114.68,-84 114.68,-96 114.68,-96 114.68,-102 108.68,-108 102.68,-108"/>
<text text-anchor="middle" x="73.18" y="-87.5" font-family="sans" font-size="10.00">get_predictions</text>
</g>
<!-- 1&#45;&gt;0 -->
<g id="edge1" class="edge">
<title>1&#45;&gt;0</title>
<path fill="none" stroke="grey" stroke-width="2" d="M114.91,-82.39C136.71,-79.05 163.85,-75.07 188.18,-72 363.54,-49.88 573.85,-30.02 657.86,-22.35"/>
<polygon fill="grey" stroke="grey" stroke-width="2" points="658.29,-25.83 667.93,-21.44 657.65,-18.86 658.29,-25.83"/>
</g>
<!-- 2 -->
<g id="node3" class="node">
<title>2</title>
<path fill="none" stroke="#59d856" stroke-width="2" d="M600.68,-108C600.68,-108 541.68,-108 541.68,-108 535.68,-108 529.68,-102 529.68,-96 529.68,-96 529.68,-84 529.68,-84 529.68,-78 535.68,-72 541.68,-72 541.68,-72 600.68,-72 600.68,-72 606.68,-72 612.68,-78 612.68,-84 612.68,-84 612.68,-96 612.68,-96 612.68,-102 606.68,-108 600.68,-108"/>
<text text-anchor="middle" x="571.18" y="-87.5" font-family="sans" font-size="10.00">get_predictions</text>
</g>
<!-- 2&#45;&gt;0 -->
<g id="edge2" class="edge">
<title>2&#45;&gt;0</title>
<path fill="none" stroke="grey" stroke-width="2" d="M601.52,-71.88C618.94,-62.04 640.91,-49.64 659.2,-39.31"/>
<polygon fill="grey" stroke="grey" stroke-width="2" points="661.13,-42.24 668.12,-34.28 657.69,-36.15 661.13,-42.24"/>
</g>
<!-- 3 -->
<g id="node4" class="node">
<title>3</title>
<path fill="none" stroke="#59d856" stroke-width="2" d="M1015.68,-108C1015.68,-108 956.68,-108 956.68,-108 950.68,-108 944.68,-102 944.68,-96 944.68,-96 944.68,-84 944.68,-84 944.68,-78 950.68,-72 956.68,-72 956.68,-72 1015.68,-72 1015.68,-72 1021.68,-72 1027.68,-78 1027.68,-84 1027.68,-84 1027.68,-96 1027.68,-96 1027.68,-102 1021.68,-108 1015.68,-108"/>
<text text-anchor="middle" x="986.18" y="-87.5" font-family="sans" font-size="10.00">get_predictions</text>
</g>
<!-- 3&#45;&gt;0 -->
<g id="edge3" class="edge">
<title>3&#45;&gt;0</title>
<path fill="none" stroke="grey" stroke-width="2" d="M944.49,-78.97C887.65,-65.3 786.7,-41.01 732.33,-27.94"/>
<polygon fill="grey" stroke="grey" stroke-width="2" points="732.96,-24.49 722.42,-25.55 731.33,-31.29 732.96,-24.49"/>
</g>
<!-- 4 -->
<g id="node5" class="node">
<title>4</title>
<path fill="none" stroke="#59d856" stroke-width="2" d="M268.68,-108C268.68,-108 209.68,-108 209.68,-108 203.68,-108 197.68,-102 197.68,-96 197.68,-96 197.68,-84 197.68,-84 197.68,-78 203.68,-72 209.68,-72 209.68,-72 268.68,-72 268.68,-72 274.68,-72 280.68,-78 280.68,-84 280.68,-84 280.68,-96 280.68,-96 280.68,-102 274.68,-108 268.68,-108"/>
<text text-anchor="middle" x="239.18" y="-87.5" font-family="sans" font-size="10.00">get_predictions</text>
</g>
<!-- 4&#45;&gt;0 -->
<g id="edge4" class="edge">
<title>4&#45;&gt;0</title>
<path fill="none" stroke="grey" stroke-width="2" d="M280.86,-82.6C369.1,-69.06 573.58,-37.67 657.85,-24.73"/>
<polygon fill="grey" stroke="grey" stroke-width="2" points="658.63,-28.15 667.98,-23.18 657.57,-21.23 658.63,-28.15"/>
</g>
<!-- 5 -->
<g id="node6" class="node">
<title>5</title>
<path fill="none" stroke="#59d856" stroke-width="2" d="M434.68,-108C434.68,-108 375.68,-108 375.68,-108 369.68,-108 363.68,-102 363.68,-96 363.68,-96 363.68,-84 363.68,-84 363.68,-78 369.68,-72 375.68,-72 375.68,-72 434.68,-72 434.68,-72 440.68,-72 446.68,-78 446.68,-84 446.68,-84 446.68,-96 446.68,-96 446.68,-102 440.68,-108 434.68,-108"/>
<text text-anchor="middle" x="405.18" y="-87.5" font-family="sans" font-size="10.00">get_predictions</text>
</g>
<!-- 5&#45;&gt;0 -->
<g id="edge5" class="edge">
<title>5&#45;&gt;0</title>
<path fill="none" stroke="grey" stroke-width="2" d="M446.73,-78.97C503.38,-65.3 603.98,-41.01 658.16,-27.94"/>
<polygon fill="grey" stroke="grey" stroke-width="2" points="659.14,-31.3 668.04,-25.55 657.49,-24.5 659.14,-31.3"/>
</g>
<!-- 6 -->
<g id="node7" class="node">
<title>6</title>
<path fill="none" stroke="#59d856" stroke-width="2" d="M724.68,-108C724.68,-108 665.68,-108 665.68,-108 659.68,-108 653.68,-102 653.68,-96 653.68,-96 653.68,-84 653.68,-84 653.68,-78 659.68,-72 665.68,-72 665.68,-72 724.68,-72 724.68,-72 730.68,-72 736.68,-78 736.68,-84 736.68,-84 736.68,-96 736.68,-96 736.68,-102 730.68,-108 724.68,-108"/>
<text text-anchor="middle" x="695.18" y="-87.5" font-family="sans" font-size="10.00">get_predictions</text>
</g>
<!-- 6&#45;&gt;0 -->
<g id="edge6" class="edge">
<title>6&#45;&gt;0</title>
<path fill="none" stroke="grey" stroke-width="2" d="M695.18,-71.7C695.18,-63.98 695.18,-54.71 695.18,-46.11"/>
<polygon fill="grey" stroke="grey" stroke-width="2" points="698.68,-46.1 695.18,-36.1 691.68,-46.1 698.68,-46.1"/>
</g>
<!-- 7 -->
<g id="node8" class="node">
<title>7</title>
<path fill="none" stroke="#59d856" stroke-width="2" d="M849.68,-108C849.68,-108 790.68,-108 790.68,-108 784.68,-108 778.68,-102 778.68,-96 778.68,-96 778.68,-84 778.68,-84 778.68,-78 784.68,-72 790.68,-72 790.68,-72 849.68,-72 849.68,-72 855.68,-72 861.68,-78 861.68,-84 861.68,-84 861.68,-96 861.68,-96 861.68,-102 855.68,-108 849.68,-108"/>
<text text-anchor="middle" x="820.18" y="-87.5" font-family="sans" font-size="10.00">get_predictions</text>
</g>
<!-- 7&#45;&gt;0 -->
<g id="edge7" class="edge">
<title>7&#45;&gt;0</title>
<path fill="none" stroke="grey" stroke-width="2" d="M789.6,-71.88C771.96,-62 749.69,-49.52 731.2,-39.17"/>
<polygon fill="grey" stroke="grey" stroke-width="2" points="732.9,-36.11 722.47,-34.28 729.48,-42.22 732.9,-36.11"/>
</g>
<!-- 8 -->
<g id="node9" class="node">
<title>8</title>
<path fill="none" stroke="#59d856" stroke-width="2" d="M1181.68,-108C1181.68,-108 1122.68,-108 1122.68,-108 1116.68,-108 1110.68,-102 1110.68,-96 1110.68,-96 1110.68,-84 1110.68,-84 1110.68,-78 1116.68,-72 1122.68,-72 1122.68,-72 1181.68,-72 1181.68,-72 1187.68,-72 1193.68,-78 1193.68,-84 1193.68,-84 1193.68,-96 1193.68,-96 1193.68,-102 1187.68,-108 1181.68,-108"/>
<text text-anchor="middle" x="1152.18" y="-87.5" font-family="sans" font-size="10.00">get_predictions</text>
</g>
<!-- 8&#45;&gt;0 -->
<g id="edge8" class="edge">
<title>8&#45;&gt;0</title>
<path fill="none" stroke="grey" stroke-width="2" d="M1110.41,-82.6C1021.89,-69.04 816.64,-37.6 732.34,-24.69"/>
<polygon fill="grey" stroke="grey" stroke-width="2" points="732.86,-21.23 722.44,-23.18 731.8,-28.15 732.86,-21.23"/>
</g>
<!-- 9 -->
<g id="node10" class="node">
<title>9</title>
<path fill="none" stroke="#59d856" stroke-width="2" d="M1347.68,-108C1347.68,-108 1288.68,-108 1288.68,-108 1282.68,-108 1276.68,-102 1276.68,-96 1276.68,-96 1276.68,-84 1276.68,-84 1276.68,-78 1282.68,-72 1288.68,-72 1288.68,-72 1347.68,-72 1347.68,-72 1353.68,-72 1359.68,-78 1359.68,-84 1359.68,-84 1359.68,-96 1359.68,-96 1359.68,-102 1353.68,-108 1347.68,-108"/>
<text text-anchor="middle" x="1318.18" y="-87.5" font-family="sans" font-size="10.00">get_predictions</text>
</g>
<!-- 9&#45;&gt;0 -->
<g id="edge9" class="edge">
<title>9&#45;&gt;0</title>
<path fill="none" stroke="grey" stroke-width="2" d="M1276.45,-82.39C1254.65,-79.05 1227.51,-75.07 1203.18,-72 1027.27,-49.83 816.25,-29.96 732.28,-22.32"/>
<polygon fill="grey" stroke="grey" stroke-width="2" points="732.49,-18.83 722.21,-21.41 731.86,-25.8 732.49,-18.83"/>
</g>
<!-- 10 -->
<g id="node11" class="node">
<title>10</title>
<path fill="none" stroke="#d85656" stroke-width="2" d="M116.18,-196C116.18,-196 30.18,-196 30.18,-196 24.18,-196 18.18,-190 18.18,-184 18.18,-184 18.18,-156 18.18,-156 18.18,-150 24.18,-144 30.18,-144 30.18,-144 116.18,-144 116.18,-144 122.18,-144 128.18,-150 128.18,-156 128.18,-156 128.18,-184 128.18,-184 128.18,-190 122.18,-196 116.18,-196"/>
<text text-anchor="middle" x="73.18" y="-184" font-family="sans" font-size="10.00">train_whole_model</text>
<text text-anchor="middle" x="73.18" y="-173" font-family="sans" font-size="10.00">model: RF</text>
<text text-anchor="middle" x="73.18" y="-162" font-family="sans" font-size="10.00">repeat: 0</text>
<text text-anchor="middle" x="73.18" y="-151" font-family="sans" font-size="10.00">target: encoded_label</text>
</g>
<!-- 10&#45;&gt;1 -->
<g id="edge10" class="edge">
<title>10&#45;&gt;1</title>
<path fill="none" stroke="grey" stroke-width="2" d="M73.18,-143.89C73.18,-135.84 73.18,-126.88 73.18,-118.66"/>
<polygon fill="grey" stroke="grey" stroke-width="2" points="76.68,-118.41 73.18,-108.41 69.68,-118.41 76.68,-118.41"/>
</g>
<!-- 11 -->
<g id="node12" class="node">
<title>11</title>
<path fill="none" stroke="#d6d856" stroke-width="2" d="M221.18,-268C221.18,-268 175.18,-268 175.18,-268 169.18,-268 163.18,-262 163.18,-256 163.18,-256 163.18,-244 163.18,-244 163.18,-238 169.18,-232 175.18,-232 175.18,-232 221.18,-232 221.18,-232 227.18,-232 233.18,-238 233.18,-244 233.18,-244 233.18,-256 233.18,-256 233.18,-262 227.18,-268 221.18,-268"/>
<text text-anchor="middle" x="198.18" y="-253" font-family="sans" font-size="10.00">subset_data</text>
<text text-anchor="middle" x="198.18" y="-242" font-family="sans" font-size="10.00">subtype: B</text>
</g>
<!-- 11&#45;&gt;1 -->
<g id="edge11" class="edge">
<title>11&#45;&gt;1</title>
<path fill="none" stroke="grey" stroke-width="2" d="M163,-244.22C113.62,-236.71 27.71,-220.44 9.18,-196 -4.78,-177.58 -0.65,-164.91 9.18,-144 14.7,-132.26 24.25,-122.22 34.3,-114.15"/>
<polygon fill="grey" stroke="grey" stroke-width="2" points="36.49,-116.88 42.41,-108.09 32.31,-111.27 36.49,-116.88"/>
</g>
<!-- 11&#45;&gt;4 -->
<g id="edge17" class="edge">
<title>11&#45;&gt;4</title>
<path fill="none" stroke="grey" stroke-width="2" d="M187.97,-231.89C176.6,-210.46 161.52,-173.05 175.18,-144 180.7,-132.26 190.25,-122.22 200.3,-114.15"/>
<polygon fill="grey" stroke="grey" stroke-width="2" points="202.49,-116.88 208.41,-108.09 198.31,-111.27 202.49,-116.88"/>
</g>
<!-- 11&#45;&gt;5 -->
<g id="edge19" class="edge">
<title>11&#45;&gt;5</title>
<path fill="none" stroke="grey" stroke-width="2" d="M233.27,-236.22C254.94,-227.19 282.47,-213.57 303.18,-196 325.01,-177.48 321.56,-164.84 341.18,-144 351.03,-133.54 362.9,-123.19 373.74,-114.46"/>
<polygon fill="grey" stroke="grey" stroke-width="2" points="376.09,-117.06 381.77,-108.12 371.75,-111.57 376.09,-117.06"/>
</g>
<!-- 11&#45;&gt;10 -->
<g id="edge28" class="edge">
<title>11&#45;&gt;10</title>
<path fill="none" stroke="grey" stroke-width="2" d="M170.75,-231.88C156.43,-222.95 138.48,-211.74 121.89,-201.39"/>
<polygon fill="grey" stroke="grey" stroke-width="2" points="123.7,-198.4 113.37,-196.07 120,-204.34 123.7,-198.4"/>
</g>
<!-- 16 -->
<g id="node17" class="node">
<title>16</title>
<path fill="none" stroke="#d85656" stroke-width="2" d="M282.18,-196C282.18,-196 196.18,-196 196.18,-196 190.18,-196 184.18,-190 184.18,-184 184.18,-184 184.18,-156 184.18,-156 184.18,-150 190.18,-144 196.18,-144 196.18,-144 282.18,-144 282.18,-144 288.18,-144 294.18,-150 294.18,-156 294.18,-156 294.18,-184 294.18,-184 294.18,-190 288.18,-196 282.18,-196"/>
<text text-anchor="middle" x="239.18" y="-184" font-family="sans" font-size="10.00">train_whole_model</text>
<text text-anchor="middle" x="239.18" y="-173" font-family="sans" font-size="10.00">model: Bayes</text>
<text text-anchor="middle" x="239.18" y="-162" font-family="sans" font-size="10.00">repeat: 0</text>
<text text-anchor="middle" x="239.18" y="-151" font-family="sans" font-size="10.00">target: encoded_label</text>
</g>
<!-- 11&#45;&gt;16 -->
<g id="edge31" class="edge">
<title>11&#45;&gt;16</title>
<path fill="none" stroke="grey" stroke-width="2" d="M207.28,-231.69C211.39,-223.88 216.39,-214.37 221.2,-205.22"/>
<polygon fill="grey" stroke="grey" stroke-width="2" points="224.35,-206.74 225.91,-196.26 218.15,-203.48 224.35,-206.74"/>
</g>
<!-- 17 -->
<g id="node18" class="node">
<title>17</title>
<path fill="none" stroke="#d85656" stroke-width="2" d="M448.18,-196C448.18,-196 362.18,-196 362.18,-196 356.18,-196 350.18,-190 350.18,-184 350.18,-184 350.18,-156 350.18,-156 350.18,-150 356.18,-144 362.18,-144 362.18,-144 448.18,-144 448.18,-144 454.18,-144 460.18,-150 460.18,-156 460.18,-156 460.18,-184 460.18,-184 460.18,-190 454.18,-196 448.18,-196"/>
<text text-anchor="middle" x="405.18" y="-184" font-family="sans" font-size="10.00">train_whole_model</text>
<text text-anchor="middle" x="405.18" y="-173" font-family="sans" font-size="10.00">model: Logistic</text>
<text text-anchor="middle" x="405.18" y="-162" font-family="sans" font-size="10.00">repeat: 0</text>
<text text-anchor="middle" x="405.18" y="-151" font-family="sans" font-size="10.00">target: encoded_label</text>
</g>
<!-- 11&#45;&gt;17 -->
<g id="edge32" class="edge">
<title>11&#45;&gt;17</title>
<path fill="none" stroke="grey" stroke-width="2" d="M233.3,-235.77C262.5,-224.76 304.86,-208.8 340.21,-195.48"/>
<polygon fill="grey" stroke="grey" stroke-width="2" points="341.86,-198.6 349.98,-191.8 339.39,-192.05 341.86,-198.6"/>
</g>
<!-- 12 -->
<g id="node13" class="node">
<title>12</title>
<path fill="none" stroke="#d85656" stroke-width="2" d="M614.18,-196C614.18,-196 528.18,-196 528.18,-196 522.18,-196 516.18,-190 516.18,-184 516.18,-184 516.18,-156 516.18,-156 516.18,-150 522.18,-144 528.18,-144 528.18,-144 614.18,-144 614.18,-144 620.18,-144 626.18,-150 626.18,-156 626.18,-156 626.18,-184 626.18,-184 626.18,-190 620.18,-196 614.18,-196"/>
<text text-anchor="middle" x="571.18" y="-184" font-family="sans" font-size="10.00">train_whole_model</text>
<text text-anchor="middle" x="571.18" y="-173" font-family="sans" font-size="10.00">model: RF</text>
<text text-anchor="middle" x="571.18" y="-162" font-family="sans" font-size="10.00">repeat: 0</text>
<text text-anchor="middle" x="571.18" y="-151" font-family="sans" font-size="10.00">target: encoded_label</text>
</g>
<!-- 12&#45;&gt;2 -->
<g id="edge12" class="edge">
<title>12&#45;&gt;2</title>
<path fill="none" stroke="grey" stroke-width="2" d="M571.18,-143.89C571.18,-135.84 571.18,-126.88 571.18,-118.66"/>
<polygon fill="grey" stroke="grey" stroke-width="2" points="574.68,-118.41 571.18,-108.41 567.68,-118.41 574.68,-118.41"/>
</g>
<!-- 13 -->
<g id="node14" class="node">
<title>13</title>
<path fill="none" stroke="#d6d856" stroke-width="2" d="M719.18,-268C719.18,-268 673.18,-268 673.18,-268 667.18,-268 661.18,-262 661.18,-256 661.18,-256 661.18,-244 661.18,-244 661.18,-238 667.18,-232 673.18,-232 673.18,-232 719.18,-232 719.18,-232 725.18,-232 731.18,-238 731.18,-244 731.18,-244 731.18,-256 731.18,-256 731.18,-262 725.18,-268 719.18,-268"/>
<text text-anchor="middle" x="696.18" y="-253" font-family="sans" font-size="10.00">subset_data</text>
<text text-anchor="middle" x="696.18" y="-242" font-family="sans" font-size="10.00">subtype: C</text>
</g>
<!-- 13&#45;&gt;2 -->
<g id="edge13" class="edge">
<title>13&#45;&gt;2</title>
<path fill="none" stroke="grey" stroke-width="2" d="M661,-244.22C611.62,-236.71 525.71,-220.44 507.18,-196 493.22,-177.58 497.35,-164.91 507.18,-144 512.7,-132.26 522.25,-122.22 532.3,-114.15"/>
<polygon fill="grey" stroke="grey" stroke-width="2" points="534.49,-116.88 540.41,-108.09 530.31,-111.27 534.49,-116.88"/>
</g>
<!-- 13&#45;&gt;6 -->
<g id="edge21" class="edge">
<title>13&#45;&gt;6</title>
<path fill="none" stroke="grey" stroke-width="2" d="M686.64,-231.93C681.54,-221.82 675.79,-208.57 673.18,-196 668.48,-173.37 668.66,-166.67 673.18,-144 674.97,-135.01 678.32,-125.64 681.87,-117.32"/>
<polygon fill="grey" stroke="grey" stroke-width="2" points="685.1,-118.67 686.05,-108.12 678.73,-115.77 685.1,-118.67"/>
</g>
<!-- 13&#45;&gt;7 -->
<g id="edge23" class="edge">
<title>13&#45;&gt;7</title>
<path fill="none" stroke="grey" stroke-width="2" d="M731.29,-240.16C754.71,-232.42 784.2,-218.75 801.18,-196 817.92,-173.57 821.52,-141.05 821.66,-118.15"/>
<polygon fill="grey" stroke="grey" stroke-width="2" points="825.16,-118.03 821.5,-108.08 818.16,-118.13 825.16,-118.03"/>
</g>
<!-- 13&#45;&gt;12 -->
<g id="edge29" class="edge">
<title>13&#45;&gt;12</title>
<path fill="none" stroke="grey" stroke-width="2" d="M668.75,-231.88C654.43,-222.95 636.48,-211.74 619.89,-201.39"/>
<polygon fill="grey" stroke="grey" stroke-width="2" points="621.7,-198.4 611.37,-196.07 618,-204.34 621.7,-198.4"/>
</g>
<!-- 18 -->
<g id="node19" class="node">
<title>18</title>
<path fill="none" stroke="#d85656" stroke-width="2" d="M780.18,-196C780.18,-196 694.18,-196 694.18,-196 688.18,-196 682.18,-190 682.18,-184 682.18,-184 682.18,-156 682.18,-156 682.18,-150 688.18,-144 694.18,-144 694.18,-144 780.18,-144 780.18,-144 786.18,-144 792.18,-150 792.18,-156 792.18,-156 792.18,-184 792.18,-184 792.18,-190 786.18,-196 780.18,-196"/>
<text text-anchor="middle" x="737.18" y="-184" font-family="sans" font-size="10.00">train_whole_model</text>
<text text-anchor="middle" x="737.18" y="-173" font-family="sans" font-size="10.00">model: Bayes</text>
<text text-anchor="middle" x="737.18" y="-162" font-family="sans" font-size="10.00">repeat: 0</text>
<text text-anchor="middle" x="737.18" y="-151" font-family="sans" font-size="10.00">target: encoded_label</text>
</g>
<!-- 13&#45;&gt;18 -->
<g id="edge33" class="edge">
<title>13&#45;&gt;18</title>
<path fill="none" stroke="grey" stroke-width="2" d="M705.28,-231.69C709.39,-223.88 714.39,-214.37 719.2,-205.22"/>
<polygon fill="grey" stroke="grey" stroke-width="2" points="722.35,-206.74 723.91,-196.26 716.15,-203.48 722.35,-206.74"/>
</g>
<!-- 19 -->
<g id="node20" class="node">
<title>19</title>
<path fill="none" stroke="#d85656" stroke-width="2" d="M946.18,-196C946.18,-196 860.18,-196 860.18,-196 854.18,-196 848.18,-190 848.18,-184 848.18,-184 848.18,-156 848.18,-156 848.18,-150 854.18,-144 860.18,-144 860.18,-144 946.18,-144 946.18,-144 952.18,-144 958.18,-150 958.18,-156 958.18,-156 958.18,-184 958.18,-184 958.18,-190 952.18,-196 946.18,-196"/>
<text text-anchor="middle" x="903.18" y="-184" font-family="sans" font-size="10.00">train_whole_model</text>
<text text-anchor="middle" x="903.18" y="-173" font-family="sans" font-size="10.00">model: Logistic</text>
<text text-anchor="middle" x="903.18" y="-162" font-family="sans" font-size="10.00">repeat: 0</text>
<text text-anchor="middle" x="903.18" y="-151" font-family="sans" font-size="10.00">target: encoded_label</text>
</g>
<!-- 13&#45;&gt;19 -->
<g id="edge34" class="edge">
<title>13&#45;&gt;19</title>
<path fill="none" stroke="grey" stroke-width="2" d="M731.3,-235.77C760.5,-224.76 802.86,-208.8 838.21,-195.48"/>
<polygon fill="grey" stroke="grey" stroke-width="2" points="839.86,-198.6 847.98,-191.8 837.39,-192.05 839.86,-198.6"/>
</g>
<!-- 14 -->
<g id="node15" class="node">
<title>14</title>
<path fill="none" stroke="#d85656" stroke-width="2" d="M1112.18,-196C1112.18,-196 1026.18,-196 1026.18,-196 1020.18,-196 1014.18,-190 1014.18,-184 1014.18,-184 1014.18,-156 1014.18,-156 1014.18,-150 1020.18,-144 1026.18,-144 1026.18,-144 1112.18,-144 1112.18,-144 1118.18,-144 1124.18,-150 1124.18,-156 1124.18,-156 1124.18,-184 1124.18,-184 1124.18,-190 1118.18,-196 1112.18,-196"/>
<text text-anchor="middle" x="1069.18" y="-184" font-family="sans" font-size="10.00">train_whole_model</text>
<text text-anchor="middle" x="1069.18" y="-173" font-family="sans" font-size="10.00">model: RF</text>
<text text-anchor="middle" x="1069.18" y="-162" font-family="sans" font-size="10.00">repeat: 0</text>
<text text-anchor="middle" x="1069.18" y="-151" font-family="sans" font-size="10.00">target: encoded_label</text>
</g>
<!-- 14&#45;&gt;3 -->
<g id="edge14" class="edge">
<title>14&#45;&gt;3</title>
<path fill="none" stroke="grey" stroke-width="2" d="M1042.46,-143.89C1032.67,-134.68 1021.61,-124.29 1011.9,-115.17"/>
<polygon fill="grey" stroke="grey" stroke-width="2" points="1014.14,-112.47 1004.45,-108.17 1009.34,-117.57 1014.14,-112.47"/>
</g>
<!-- 15 -->
<g id="node16" class="node">
<title>15</title>
<path fill="none" stroke="#d6d856" stroke-width="2" d="M1218.18,-268C1218.18,-268 1168.18,-268 1168.18,-268 1162.18,-268 1156.18,-262 1156.18,-256 1156.18,-256 1156.18,-244 1156.18,-244 1156.18,-238 1162.18,-232 1168.18,-232 1168.18,-232 1218.18,-232 1218.18,-232 1224.18,-232 1230.18,-238 1230.18,-244 1230.18,-244 1230.18,-256 1230.18,-256 1230.18,-262 1224.18,-268 1218.18,-268"/>
<text text-anchor="middle" x="1193.18" y="-253" font-family="sans" font-size="10.00">subset_data</text>
<text text-anchor="middle" x="1193.18" y="-242" font-family="sans" font-size="10.00">subtype: ALL</text>
</g>
<!-- 15&#45;&gt;3 -->
<g id="edge15" class="edge">
<title>15&#45;&gt;3</title>
<path fill="none" stroke="grey" stroke-width="2" d="M1156.15,-249.49C1113.31,-247.93 1043.72,-238.42 1005.18,-196 986.17,-175.07 983.07,-141.78 983.67,-118.3"/>
<polygon fill="grey" stroke="grey" stroke-width="2" points="987.17,-118.44 984.17,-108.28 980.18,-118.1 987.17,-118.44"/>
</g>
<!-- 15&#45;&gt;8 -->
<g id="edge25" class="edge">
<title>15&#45;&gt;8</title>
<path fill="none" stroke="grey" stroke-width="2" d="M1184.88,-231.67C1180.28,-221.48 1174.78,-208.23 1171.18,-196 1163.58,-170.15 1158.48,-139.79 1155.5,-118.38"/>
<polygon fill="grey" stroke="grey" stroke-width="2" points="1158.95,-117.81 1154.16,-108.36 1152.01,-118.73 1158.95,-117.81"/>
</g>
<!-- 15&#45;&gt;9 -->
<g id="edge27" class="edge">
<title>15&#45;&gt;9</title>
<path fill="none" stroke="grey" stroke-width="2" d="M1230.42,-239.66C1253.75,-231.85 1282.46,-218.31 1299.18,-196 1315.96,-173.6 1319.56,-141.07 1319.68,-118.17"/>
<polygon fill="grey" stroke="grey" stroke-width="2" points="1323.18,-118.03 1319.52,-108.09 1316.18,-118.15 1323.18,-118.03"/>
</g>
<!-- 15&#45;&gt;14 -->
<g id="edge30" class="edge">
<title>15&#45;&gt;14</title>
<path fill="none" stroke="grey" stroke-width="2" d="M1165.97,-231.88C1151.89,-223.03 1134.28,-211.95 1117.95,-201.68"/>
<polygon fill="grey" stroke="grey" stroke-width="2" points="1119.37,-198.44 1109.04,-196.07 1115.65,-204.36 1119.37,-198.44"/>
</g>
<!-- 20 -->
<g id="node21" class="node">
<title>20</title>
<path fill="none" stroke="#d85656" stroke-width="2" d="M1278.18,-196C1278.18,-196 1192.18,-196 1192.18,-196 1186.18,-196 1180.18,-190 1180.18,-184 1180.18,-184 1180.18,-156 1180.18,-156 1180.18,-150 1186.18,-144 1192.18,-144 1192.18,-144 1278.18,-144 1278.18,-144 1284.18,-144 1290.18,-150 1290.18,-156 1290.18,-156 1290.18,-184 1290.18,-184 1290.18,-190 1284.18,-196 1278.18,-196"/>
<text text-anchor="middle" x="1235.18" y="-184" font-family="sans" font-size="10.00">train_whole_model</text>
<text text-anchor="middle" x="1235.18" y="-173" font-family="sans" font-size="10.00">model: Bayes</text>
<text text-anchor="middle" x="1235.18" y="-162" font-family="sans" font-size="10.00">repeat: 0</text>
<text text-anchor="middle" x="1235.18" y="-151" font-family="sans" font-size="10.00">target: encoded_label</text>
</g>
<!-- 15&#45;&gt;20 -->
<g id="edge35" class="edge">
<title>15&#45;&gt;20</title>
<path fill="none" stroke="grey" stroke-width="2" d="M1202.5,-231.69C1206.71,-223.88 1211.83,-214.37 1216.76,-205.22"/>
<polygon fill="grey" stroke="grey" stroke-width="2" points="1219.92,-206.72 1221.58,-196.26 1213.76,-203.4 1219.92,-206.72"/>
</g>
<!-- 21 -->
<g id="node22" class="node">
<title>21</title>
<path fill="none" stroke="#d85656" stroke-width="2" d="M1444.18,-196C1444.18,-196 1358.18,-196 1358.18,-196 1352.18,-196 1346.18,-190 1346.18,-184 1346.18,-184 1346.18,-156 1346.18,-156 1346.18,-150 1352.18,-144 1358.18,-144 1358.18,-144 1444.18,-144 1444.18,-144 1450.18,-144 1456.18,-150 1456.18,-156 1456.18,-156 1456.18,-184 1456.18,-184 1456.18,-190 1450.18,-196 1444.18,-196"/>
<text text-anchor="middle" x="1401.18" y="-184" font-family="sans" font-size="10.00">train_whole_model</text>
<text text-anchor="middle" x="1401.18" y="-173" font-family="sans" font-size="10.00">model: Logistic</text>
<text text-anchor="middle" x="1401.18" y="-162" font-family="sans" font-size="10.00">repeat: 0</text>
<text text-anchor="middle" x="1401.18" y="-151" font-family="sans" font-size="10.00">target: encoded_label</text>
</g>
<!-- 15&#45;&gt;21 -->
<g id="edge36" class="edge">
<title>15&#45;&gt;21</title>
<path fill="none" stroke="grey" stroke-width="2" d="M1230.37,-235.06C1259.74,-224.04 1301.44,-208.4 1336.29,-195.33"/>
<polygon fill="grey" stroke="grey" stroke-width="2" points="1337.79,-198.51 1345.92,-191.72 1335.33,-191.96 1337.79,-198.51"/>
</g>
<!-- 16&#45;&gt;4 -->
<g id="edge16" class="edge">
<title>16&#45;&gt;4</title>
<path fill="none" stroke="grey" stroke-width="2" d="M239.18,-143.89C239.18,-135.84 239.18,-126.88 239.18,-118.66"/>
<polygon fill="grey" stroke="grey" stroke-width="2" points="242.68,-118.41 239.18,-108.41 235.68,-118.41 242.68,-118.41"/>
</g>
<!-- 17&#45;&gt;5 -->
<g id="edge18" class="edge">
<title>17&#45;&gt;5</title>
<path fill="none" stroke="grey" stroke-width="2" d="M405.18,-143.89C405.18,-135.84 405.18,-126.88 405.18,-118.66"/>
<polygon fill="grey" stroke="grey" stroke-width="2" points="408.68,-118.41 405.18,-108.41 401.68,-118.41 408.68,-118.41"/>
</g>
<!-- 18&#45;&gt;6 -->
<g id="edge20" class="edge">
<title>18&#45;&gt;6</title>
<path fill="none" stroke="grey" stroke-width="2" d="M723.66,-143.89C719.08,-135.39 713.96,-125.87 709.33,-117.28"/>
<polygon fill="grey" stroke="grey" stroke-width="2" points="712.38,-115.56 704.56,-108.41 706.22,-118.87 712.38,-115.56"/>
</g>
<!-- 19&#45;&gt;7 -->
<g id="edge22" class="edge">
<title>19&#45;&gt;7</title>
<path fill="none" stroke="grey" stroke-width="2" d="M876.46,-143.89C866.67,-134.68 855.61,-124.29 845.9,-115.17"/>
<polygon fill="grey" stroke="grey" stroke-width="2" points="848.14,-112.47 838.45,-108.17 843.34,-117.57 848.14,-112.47"/>
</g>
<!-- 20&#45;&gt;8 -->
<g id="edge24" class="edge">
<title>20&#45;&gt;8</title>
<path fill="none" stroke="grey" stroke-width="2" d="M1208.46,-143.89C1198.67,-134.68 1187.61,-124.29 1177.9,-115.17"/>
<polygon fill="grey" stroke="grey" stroke-width="2" points="1180.14,-112.47 1170.45,-108.17 1175.34,-117.57 1180.14,-112.47"/>
</g>
<!-- 21&#45;&gt;9 -->
<g id="edge26" class="edge">
<title>21&#45;&gt;9</title>
<path fill="none" stroke="grey" stroke-width="2" d="M1374.46,-143.89C1364.67,-134.68 1353.61,-124.29 1343.9,-115.17"/>
<polygon fill="grey" stroke="grey" stroke-width="2" points="1346.14,-112.47 1336.45,-108.17 1341.34,-117.57 1346.14,-112.47"/>
</g>
</g>
</svg>
